# xmcd
#
# Track frame offsets: 
#        150
#        20862
#        45207
#        63982
#        76389
#        98912
#        115821
#        138736
#        156044
#        187358
#        212089
#        227882
#        253510
#        271239
#        295812
#
# Disc length: 4449 seconds
#
# Revision: 0
# Processed by: cddbd v1.5.1PL0 Copyright (c) Steve Scherf et al.
# Submitted via: ExactAudioCopy v0.95a5
#
DISCID=da115f0f
DTITLE=Jorma Kaukonen - 1985-02-08 Iron Horse Café Northampton, MA
DYEAR=1985
DGENRE=Blues
TTITLE0=I Know You Rider
TTITLE1=Hesitation Blues
TTITLE2=Walkin' Blues
TTITLE3=Embryonic Journey
TTITLE4=Good Shepherd
TTITLE5=Another Man Done Gone
TTITLE6=Third Week in the Chelsea
TTITLE7=99 Year Blues
TTITLE8=Ice Age
TTITLE9=Whinin'Boy Blues
TTITLE10=Follow the Drinking Gourd
TTITLE11=Death Don't have No Mercy
TTITLE12=I'll Be Alright Someday
TTITLE13=Mann's Fate
TTITLE14=Killing Time in the Crystal City
EXTD=
EXTT0=
EXTT1=
EXTT2=
EXTT3=
EXTT4=
EXTT5=
EXTT6=
EXTT7=
EXTT8=
EXTT9=
EXTT10=
EXTT11=
EXTT12=
EXTT13=
EXTT14=
PLAYORDER=
